<svg xmlns="http://www.w3.org/2000/svg" viewBox="0 0 540.99809 532.27617"><title>logo</title><g id="Layer_2" data-name="Layer 2"><g id="Layer_1-2" data-name="Layer 1"><path d="M281.32513,532.27617a198.24728,198.24728,0,0,0,44.67445-68.26378A24.865,24.865,0,1,1,338.04664,416.387a200.10986,200.10986,0,0,0,.15752-48.265,24.86366,24.86366,0,1,1-11.69958-47.59312A199.3061,199.3061,0,0,0,194.4142,200.05255a8.31081,8.31081,0,1,1-11.18437-2.78244,200.00474,200.00474,0,0,0-67.10839-3.06984,24.865,24.865,0,1,1-47.46622,11.92588A198.237,198.237,0,0,0,0,250.951Zm11.70929-57.78144a16.57724,16.57724,0,1,1-23.44376,0A16.57724,16.57724,0,0,1,293.03442,474.49473ZM181.52371,398.14966a8.28862,8.28862,0,1,1,11.72188,0A8.28862,8.28862,0,0,1,181.52371,398.14966Zm111.51071-17.5828a16.57724,16.57724,0,1,1-23.44376,0A16.57724,16.57724,0,0,1,293.03442,380.56686Zm-41.103,41.103a24.86586,24.86586,0,1,1-35.16564,0A24.86589,24.86589,0,0,1,251.93143,421.66985ZM293.0344,286.639a16.57724,16.57724,0,1,1-23.44376,0A16.57724,16.57724,0,0,1,293.0344,286.639Zm-41.103,41.103a24.86586,24.86586,0,1,1-35.16564,0A24.86584,24.86584,0,0,1,251.9314,327.742ZM134.55978,351.18573a8.28862,8.28862,0,1,1,11.72188,0A8.28862,8.28862,0,0,1,134.55978,351.18573Zm46.96393-46.96393a8.28862,8.28862,0,1,1,11.72188,0A8.28864,8.28864,0,0,1,181.52371,304.2218ZM251.9314,233.8141a24.86586,24.86586,0,1,1-35.16564,0A24.86584,24.86584,0,0,1,251.9314,233.8141ZM146.28166,245.536a8.28862,8.28862,0,1,1-11.72188,0A8.28862,8.28862,0,0,1,146.28166,245.536ZM111.03961,280.778a24.86586,24.86586,0,1,1-35.16564,0A24.86589,24.86589,0,0,1,111.03961,280.778ZM64.07568,233.8141a24.86586,24.86586,0,1,1-35.16564,0A24.86589,24.86589,0,0,1,64.07568,233.8141Z"/><circle cx="328.27647" cy="63.54117" r="24.86586" transform="translate(51.21956 250.7373) rotate(-45)"/><circle cx="375.2404" cy="110.50511" r="24.86586" transform="translate(31.76646 297.70123) rotate(-45)"/><circle cx="422.20433" cy="157.46904" r="24.86586" transform="translate(12.31336 344.66516) rotate(-45)"/><circle cx="469.16829" cy="204.43299" r="24.86586" transform="translate(-7.13974 391.62912) rotate(-45)"/><circle cx="516.13222" cy="251.39692" r="24.86586" transform="translate(-26.59284 438.59305) rotate(-45)"/><circle cx="328.27647" cy="157.46904" r="24.86586" transform="translate(-15.19747 278.24813) rotate(-45)"/><circle cx="375.2404" cy="204.43297" r="8.28862" transform="translate(-34.65057 325.21206) rotate(-45)"/><circle cx="422.20436" cy="251.39692" r="8.28862" transform="translate(-54.10368 372.17602) rotate(-45)"/><circle cx="469.16829" cy="298.36086" r="24.86586" transform="translate(-73.55677 419.13995) rotate(-45)"/><circle cx="234.34861" cy="157.46904" r="24.86586" transform="translate(-42.70831 211.8311) rotate(-45)"/><circle cx="281.31254" cy="110.50511" r="16.57724" transform="translate(4.25563 231.2842) rotate(-45)"/><circle cx="328.27647" cy="251.3969" r="24.86586" transform="translate(-81.6145 305.75897) rotate(-45)"/><circle cx="375.24043" cy="298.36086" r="8.28862" transform="translate(-101.06761 352.72292) rotate(-45)"/><circle cx="422.20436" cy="345.32479" r="8.28862" transform="translate(-120.52071 399.68685) rotate(-45)"/><path d="M193.24559,198.57205a8.28448,8.28448,0,0,0-10.01575-1.30195q5.62356,1.2262,11.18437,2.78244A8.28993,8.28993,0,0,0,193.24559,198.57205Z"/><circle cx="281.31254" cy="204.43297" r="16.57724" transform="translate(-62.1614 258.79503) rotate(-45)"/><path d="M345.85929,362.90763a24.85978,24.85978,0,0,0-19.35472-42.37875A198.88274,198.88274,0,0,1,338.20415,368.122,24.78743,24.78743,0,0,0,345.85929,362.90763Z"/><circle cx="375.2404" cy="392.28874" r="8.28862" transform="translate(-167.48466 380.23375) rotate(-45)"/><path d="M345.85929,456.8355a24.8651,24.8651,0,0,0-7.81266-40.44848,198.82441,198.82441,0,0,1-12.04705,47.62536A24.81213,24.81213,0,0,0,345.85929,456.8355Z"/><circle cx="234.34861" cy="63.54117" r="24.86586" transform="translate(23.70872 184.32027) rotate(-45)"/><circle cx="281.31254" cy="16.57724" r="16.57724" transform="translate(70.67265 203.77337) rotate(-45)"/><circle cx="187.38468" cy="110.50511" r="24.86586" transform="translate(-23.25521 164.86717) rotate(-45)"/><circle cx="140.42072" cy="157.46906" r="24.86586" transform="translate(-70.21916 145.41406) rotate(-45)"/><path d="M111.03961,186.85017a24.85987,24.85987,0,0,0-42.38438,19.276,198.83806,198.83806,0,0,1,47.46622-11.92588A24.80008,24.80008,0,0,0,111.03961,186.85017Z"/></g></g></svg>